<svg version="1.2" xmlns="http://www.w3.org/2000/svg" viewBox="0 0 60 60" width="60" height="60"><style>.a{fill:#de6c5c}</style><path class="a" d="m30 60c-16 0-29-13-29-29 0-16 13-29 29-29 16 0 29 13 29 29 0 16-13 29-29 29z"/><path fill-rule="evenodd" d="m49.3 13.5v36.8c0 0.9-0.4 1.8-1.1 2.4-0.6 0.7-1.5 1.1-2.4 1.1h-31.5c-1 0-1.9-0.4-2.5-1.1-0.7-0.6-1-1.5-1-2.4v-36.8c0-0.9 0.3-1.8 1-2.5 0.6-0.6 1.5-1 2.5-1h7.9c1-1.1 2.2-2 3.5-2.6 1.4-0.6 2.8-0.9 4.3-0.9 1.5 0 2.9 0.3 4.3 0.9 1.3 0.6 2.5 1.5 3.5 2.6h8c0.9 0 1.8 0.4 2.4 1 0.7 0.7 1.1 1.6 1.1 2.5zm-3.5 0h-5.9q0.6 1.7 0.6 3.5v1.8c0 0.4-0.2 0.9-0.5 1.2-0.3 0.3-0.8 0.5-1.2 0.5h-17.5c-0.5 0-1-0.2-1.3-0.5-0.3-0.3-0.5-0.8-0.5-1.3v-1.7q0-1.8 0.6-3.5h-5.8v36.8h31.5zm-7 22.7c0 0.5-0.2 0.9-0.6 1.2-0.3 0.4-0.7 0.6-1.2 0.6h-14c-0.5 0-0.9-0.2-1.2-0.6-0.4-0.3-0.5-0.7-0.5-1.2 0-0.5 0.1-0.9 0.5-1.2 0.3-0.4 0.7-0.5 1.2-0.5h14c0.5 0 0.9 0.1 1.2 0.5 0.4 0.3 0.6 0.7 0.6 1.2zm-15.8-19.2h14c0-1.9-0.7-3.7-2.1-5-1.3-1.3-3-2-4.9-2-1.9 0-3.6 0.7-4.9 2-1.4 1.3-2.1 3.1-2.1 5zm15.2 11c0.4 0.3 0.6 0.7 0.6 1.2 0 0.5-0.2 0.9-0.6 1.2-0.3 0.4-0.7 0.6-1.2 0.6h-14c-0.5 0-0.9-0.2-1.2-0.6-0.4-0.3-0.5-0.7-0.5-1.2 0-0.5 0.1-0.9 0.5-1.2 0.3-0.4 0.7-0.5 1.2-0.5h14c0.5 0 0.9 0.1 1.2 0.5z"/></svg>