<svg width="40" height="48" viewBox="0 0 40 48" fill="none" xmlns="http://www.w3.org/2000/svg">
<path d="M28.75 30.25C28.75 30.7141 28.5656 31.1592 28.2374 31.4874C27.9093 31.8156 27.4641 32 27 32H13C12.5359 32 12.0908 31.8156 11.7626 31.4874C11.4344 31.1592 11.25 30.7141 11.25 30.25C11.25 29.7859 11.4344 29.3407 11.7626 29.0125C12.0908 28.6844 12.5359 28.5 13 28.5H27C27.4641 28.5 27.9093 28.6844 28.2374 29.0125C28.5656 29.3407 28.75 29.7859 28.75 30.25ZM27 21.5H13C12.5359 21.5 12.0908 21.6844 11.7626 22.0126C11.4344 22.3407 11.25 22.7859 11.25 23.25C11.25 23.7141 11.4344 24.1592 11.7626 24.4874C12.0908 24.8156 12.5359 25 13 25H27C27.4641 25 27.9093 24.8156 28.2374 24.4874C28.5656 24.1592 28.75 23.7141 28.75 23.25C28.75 22.7859 28.5656 22.3407 28.2374 22.0126C27.9093 21.6844 27.4641 21.5 27 21.5ZM39.25 7.49999V44.25C39.25 45.1782 38.8812 46.0685 38.2249 46.7249C37.5685 47.3812 36.6783 47.75 35.75 47.75H4.25C3.32174 47.75 2.4315 47.3812 1.77513 46.7249C1.11875 46.0685 0.75 45.1782 0.75 44.25V7.49999C0.75 6.57173 1.11875 5.68149 1.77513 5.02511C2.4315 4.36874 3.32174 3.99999 4.25 3.99999H12.1819C13.1652 2.89907 14.3699 2.01824 15.7172 1.41515C17.0644 0.812055 18.5239 0.500305 20 0.500305C21.4761 0.500305 22.9356 0.812055 24.2828 1.41515C25.6301 2.01824 26.8348 2.89907 27.8181 3.99999H35.75C36.6783 3.99999 37.5685 4.36874 38.2249 5.02511C38.8812 5.68149 39.25 6.57173 39.25 7.49999ZM13 11H27C27 9.14347 26.2625 7.36299 24.9497 6.05024C23.637 4.73749 21.8565 3.99999 20 3.99999C18.1435 3.99999 16.363 4.73749 15.0503 6.05024C13.7375 7.36299 13 9.14347 13 11ZM35.75 7.49999H29.8984C30.2965 8.62396 30.5 9.8076 30.5 11V12.75C30.5 13.2141 30.3156 13.6592 29.9874 13.9874C29.6593 14.3156 29.2141 14.5 28.75 14.5H11.25C10.7859 14.5 10.3408 14.3156 10.0126 13.9874C9.68437 13.6592 9.5 13.2141 9.5 12.75V11C9.50004 9.8076 9.70348 8.62396 10.1016 7.49999H4.25V44.25H35.75V7.49999Z" fill="black"/>
</svg>
